Coordinates
version=1
nRows=18
nColumns=19
inDegrees=yes

Units are S.I. units (second, meters, Newtons, ...)
If the header above contains a line with 'inDegrees', this indicates whether rotational values are in degrees (yes) or radians (no).

endheader
time	pelvis_tilt	pelvis_list	pelvis_rotation	pelvis_tx	pelvis_ty	pelvis_tz	hip_flexion_r	hip_adduction_r	hip_rotation_r	knee_angle_r	knee_angle_r_beta	ankle_angle_r	hip_flexion_l	hip_adduction_l	hip_rotation_l	knee_angle_l	knee_angle_l_beta	ankle_angle_l
     16.98666667	     -2.36986193	      7.42597286	      4.50668168	      2.14612657	      0.95817185	      0.98724700	     -5.21124518	     -9.85348961	     -6.88900021	     57.33190450	      1.00063050	    -15.57826961	     20.45420546	     10.06078934	     -6.24467727	     22.10252347	      0.38576181	      3.80133724
     16.99333333	     -2.57696644	      7.71463456	      4.70745514	      2.14501364	      0.95315297	      0.98698808	     -3.49116161	    -10.28211255	     -6.37268242	     60.42944577	      1.05469279	    -14.33612588	     20.98980137	     10.37491987	     -6.51617044	     24.59211709	      0.42921341	      4.88342133
     17.00000000	     -2.36992724	      8.14378517	      4.93811750	      2.14388893	      0.94865896	      0.98676736	     -2.25688041	    -10.86271186	     -6.03605992	     63.35544994	      1.10576120	    -13.17385283	     20.94490278	     10.84708254	     -6.52931452	     26.92522933	      0.46993390	      6.32515582
     17.00666667	     -1.77704494	      8.67092217	      5.20223544	      2.14266950	      0.94481860	      0.98654113	     -1.46154472	    -11.55385868	     -5.86565016	     66.09481778	      1.15357219	    -12.15983120	     20.35745659	     11.41855417	     -6.37255534	     29.08863916	      0.50769253	      7.93717492
     17.01333333	     -2.11226286	      8.97194929	      5.44081048	      2.14114956	      0.94024015	      0.98634338	      0.59553588	    -12.07416911	     -5.38755772	     68.96135949	      1.20360278	    -11.28522621	     20.79924276	     11.77289960	     -6.24808323	     31.28886844	      0.54609377	      9.66702173
     17.02000000	     -1.53665621	      9.46902641	      5.69386174	      2.13973635	      0.93714944	      0.98613716	      1.52132619	    -12.75659233	     -5.17227336	     71.43375966	      1.24675430	    -10.53925668	     19.97914784	     12.31255424	     -5.88686943	     33.03179724	      0.57651362	     11.52359260
     17.02666667	     -1.97614044	      9.83718592	      5.91229892	      2.13798708	      0.93330217	      0.98588421	      3.80931956	    -13.39208945	     -4.60839228	     74.03051103	      1.29207616	     -9.79779123	     20.26137022	     12.74868776	     -5.64226886	     34.72414152	      0.60605060	     13.18848875
     17.03333333	     -1.53350036	     10.24020876	      6.14797239	      2.13646068	      0.93105837	      0.98556339	      4.97982939	    -13.99840442	     -4.30678064	     76.16253455	      1.32928699	     -9.11128023	     19.28530400	     13.19247903	     -5.16491519	     35.91745307	      0.62687782	     14.92892512
     17.04000000	     -1.92003879	     10.61373129	      6.33425136	      2.13477940	      0.92845957	      0.98525022	      7.24342016	    -14.58144844	     -3.61925271	     78.29134770	      1.36644179	     -8.43558556	     19.10385379	     13.63119615	     -4.80877471	     36.86256541	      0.64337314	     16.31885744
     17.04666667	     -1.86711544	     10.96880121	      6.50241093	      2.13322603	      0.92696818	      0.98482771	      8.94708576	    -15.11382006	     -3.05808784	     80.05546398	      1.39723143	     -7.72564324	     18.20491308	     14.03885287	     -4.31295683	     37.38507547	      0.65249266	     17.63509058
     17.05333333	     -1.54253604	     11.04440957	      6.73271545	      2.13161753	      0.92645085	      0.98426746	     10.30033498	    -15.24804795	     -2.61833370	     81.45301628	      1.42162332	     -7.11118202	     16.87526956	     14.16394228	     -3.56281296	     37.66473817	      0.65737369	     18.72880977
     17.06000000	     -1.81847336	     11.41977592	      6.76036790	      2.13041725	      0.92572115	      0.98375754	     12.39505640	    -15.85036303	     -1.90606348	     82.77315256	      1.44466404	     -6.17953310	     15.91162135	     14.56706871	     -3.26178083	     37.39003015	      0.65257913	     19.66179906
     17.06666667	     -1.93384054	     11.49098340	      6.85183539	      2.12920972	      0.92577038	      0.98313836	     14.24501831	    -15.98811886	     -1.27860789	     83.73745531	      1.46149430	     -5.34127626	     14.67890936	     14.68284841	     -2.69651768	     36.94853124	      0.64487352	     20.38112608
     17.07333333	     -1.96722101	     11.25600201	      7.04224290	      2.12806170	      0.92647762	      0.98237275	     15.88729702	    -15.78033528	     -0.90441249	     84.33219154	      1.47187441	     -4.50962211	     13.26633757	     14.49428856	     -1.92815149	     36.34743315	      0.63438238	     20.97993785
     17.08000000	     -2.21148784	     11.29191595	      7.00278246	      2.12725922	      0.92742069	      0.98173032	     17.79845205	    -15.88472177	     -0.28064716	     84.75162001	      1.47919482	     -3.68112178	     11.84973985	     14.55871327	     -1.47465253	     35.26289735	      0.61545366	     21.20581104
     17.08666667	     -2.46658250	     10.84190755	      7.18301753	      2.12656970	      0.92887859	      0.98084781	     19.52547140	    -15.50061719	     -0.11564161	     84.77787548	      1.47965306	     -2.84865249	     10.44619237	     14.14129659	     -0.76868833	     34.20282473	      0.59695191	     21.38770582
     17.09333333	     -2.73973219	     10.49500623	      7.25269226	      2.12596752	      0.93074603	      0.98012729	     21.24872670	    -15.16386255	      0.16686039	     84.58044379	      1.47620723	     -2.18598518	      8.93657481	     13.83450439	     -0.05739313	     32.85033237	      0.57334646	     21.23225664
     17.10000000	     -3.08751379	      9.98976555	      7.34608657	      2.12563062	      0.93292168	      0.97940594	     22.92055520	    -14.71711471	      0.22823426	     84.08210074	      1.46750950	     -1.51298399	      7.49066476	     13.34019195	      0.59855247	     31.44464997	      0.54881267	     20.87654388
